<?xml version="1.0" standalone="no"?><!DOCTYPE svg PUBLIC "-//W3C//DTD SVG 1.1//EN" "http://www.w3.org/Graphics/SVG/1.1/DTD/svg11.dtd"><svg t="1528773075038" class="icon" style="" viewBox="0 0 1024 1024" version="1.1" xmlns="http://www.w3.org/2000/svg" p-id="6039" xmlns:xlink="http://www.w3.org/1999/xlink" width="16" height="16"><defs><style type="text/css"></style></defs><path d="M85.376 245.312h853.344c29.452 0 53.328-23.875 53.328-53.328s-23.875-53.328-53.328-53.328h-853.344c-28.489 1.247-51.113 24.645-51.113 53.328s22.624 52.082 51.001 53.324zM938.72 458.672h-853.344c-29.452 0-53.328 23.875-53.328 53.328s23.875 53.328 53.328 53.328h853.344c29.452 0 53.328-23.875 53.328-53.328s-23.875-53.328-53.328-53.328zM938.72 778.688h-853.344c-29.452 0-53.328 23.875-53.328 53.328s23.875 53.328 53.328 53.328h853.344c29.452 0 53.328-23.875 53.328-53.328s-23.875-53.328-53.328-53.328z" fill="#cdcdcd" p-id="6040"></path></svg>